<?xml version="1.0" encoding="UTF-8"?>
<svg id="_图层_1" data-name="图层 1" xmlns="http://www.w3.org/2000/svg" viewBox="0 0 400 50">
  <defs>
    <style>
      .cls-1 {
        fill: #e6e6e6;
        stroke-width: 0px;
      }
    </style>
  </defs>
  <g>
    <path class="cls-1" d="m137.31,23.7s-10.72-6.99-5.07-19.47c0,0-6.35,2.98-6.35,8.39,0,7.55,6.53,9.79,11.42,11.09Z"/>
    <path class="cls-1" d="m135.92,30.07c0,2.49-3.68,2.55-3.68,2.55.21,2.82,4.55,2.36,4.52-1.9s-2.71-4.48-8.94-4.72-8.93-7.24-8.93-7.24c0,0-2.42,7.33,2.69,10.28,5.11,2.95,10.38-1.17,11.27-1.25s3.07-.19,3.07,2.3Z"/>
    <path class="cls-1" d="m152.43,12.61c0-5.4-6.35-8.39-6.35-8.39,5.64,12.48-5.07,19.47-5.07,19.47,4.88-1.3,11.42-3.54,11.42-11.09Z"/>
    <path class="cls-1" d="m159.43,18.75s-2.7,6.99-8.93,7.24c-6.23.25-8.91.46-8.94,4.72s4.3,4.72,4.52,1.9c0,0-3.68-.06-3.68-2.55s2.18-2.39,3.07-2.3,6.17,4.2,11.28,1.25c5.11-2.95,2.69-10.27,2.69-10.27Z"/>
    <path class="cls-1" d="m142.95,35.58c-1.39,0-3.07-1.62-3.07-4.27v-.66c.03-1.18.54-2.29,1.42-3.07,1.56-1.38,4.18-2.75,7.33-2.98,6.07-.43,10.83-4.97,6.35-14.48,0,0,.21,7.76-5.34,11.2-5.55,3.44-8.81,4.02-10.48,7.6h0c-1.67-3.59-4.93-4.17-10.48-7.6-5.55-3.44-5.33-11.2-5.33-11.2-4.48,9.51.28,14.05,6.35,14.48,3.15.22,5.77,1.6,7.33,2.98.88.78,1.39,1.89,1.41,3.07v.66c.01,2.65-1.67,4.27-3.06,4.27-.53,0-1.06-.08-1.57-.26-.54-.19-1.14-.15-1.64.13l-.35.19c5.36,4.1,7.32,10.14,7.32,10.14,0,0,1.97-6.03,7.35-10.14l-.35-.19c-.5-.27-1.1-.32-1.64-.13-.5.18-1.03.26-1.56.26Zm-3.8,6.87c0-.84-1.93-3.44-1.93-3.44.79-.2,1.48-.69,1.93-1.37.45.68,1.14,1.17,1.93,1.37,0,0-1.93,2.6-1.93,3.44Zm.94-5.39c-.34-.24-.65-.52-.93-.83-.28.31-.59.59-.93.83-.35.24-.77.36-1.19.36h-1.07s3.08-1.48,3.19-3.14h0c.1,1.66,3.19,3.14,3.19,3.14h-1.07c-.42,0-.84-.12-1.19-.36Z"/>
  </g>
  <g>
    <path class="cls-1" d="m321.47,2.34s-3.76,8.4-6.09,10.89c.05-.02.83-.31,1.82-.81.88,1.25,4.26,6.23,4.26,9.78,0-3.56,3.38-8.54,4.26-9.78.99.49,1.77.78,1.82.81-2.31-2.48-6.07-10.89-6.07-10.89Zm0,16.48c-.08-2.67-.81-5.27-2.11-7.6.93-.61,1.75-1.3,2.11-2.01.36.71,1.18,1.4,2.11,2.01-1.3,2.33-2.02,4.94-2.11,7.6Z"/>
    <path class="cls-1" d="m341.08,13.69s-9.16.95-12.47.18c.04.03.69.56,1.6,1.17-.63,1.39-3.26,6.81-6.34,8.58,3.08-1.78,9.09-1.35,10.61-1.2.08,1.1.2,1.93.21,1.98.98-3.25,6.38-10.71,6.38-10.71Zm-14.27,8.24c2.27-1.4,4.16-3.33,5.53-5.62.99.5,2,.86,2.8.82-.44.67-.62,1.73-.69,2.83-4.17,0-7.44,1.85-7.64,1.97Z"/>
    <path class="cls-1" d="m341.05,36.35s-5.4-7.46-6.39-10.71c0,.05-.14.88-.21,1.98-1.52.15-7.53.58-10.61-1.2,3.08,1.78,5.71,7.2,6.34,8.58-.92.61-1.56,1.14-1.61,1.17,3.31-.77,12.48.18,12.48.18Zm-14.27-8.24c2.35,1.26,4.97,1.94,7.64,1.97.06,1.1.25,2.16.69,2.83-.8-.04-1.81.31-2.8.82-1.37-2.29-3.26-4.22-5.53-5.63Z"/>
    <path class="cls-1" d="m321.41,47.66s3.76-8.4,6.09-10.89c-.05.02-.83.32-1.82.81-.88-1.25-4.26-6.23-4.26-9.78,0,3.56-3.38,8.54-4.26,9.78-.99-.49-1.77-.78-1.82-.81,2.31,2.48,6.07,10.89,6.07,10.89Zm0-16.48c.08,2.67.81,5.27,2.11,7.6-.93.61-1.75,1.3-2.11,2.01-.36-.71-1.18-1.4-2.11-2.01,1.3-2.33,2.02-4.94,2.11-7.6h0Z"/>
    <path class="cls-1" d="m301.8,36.31s9.16-.95,12.47-.18c-.04-.03-.69-.56-1.61-1.17.64-1.39,3.26-6.81,6.34-8.58-3.08,1.78-9.09,1.34-10.61,1.2-.07-1.1-.2-1.93-.21-1.98-.98,3.25-6.38,10.71-6.38,10.71Zm14.27-8.24c-2.27,1.41-4.16,3.34-5.53,5.63-.99-.5-2-.86-2.8-.82.44-.67.62-1.73.69-2.83,2.67-.04,5.29-.72,7.64-1.98h0Z"/>
    <path class="cls-1" d="m301.83,13.65s5.4,7.46,6.4,10.71c0-.05.14-.88.21-1.98,1.52-.15,7.53-.58,10.61,1.2-3.08-1.78-5.71-7.2-6.34-8.58.92-.62,1.56-1.14,1.61-1.17-3.33.76-12.48-.18-12.48-.18Zm14.27,8.24c-2.35-1.26-4.97-1.94-7.64-1.97-.06-1.1-.25-2.16-.69-2.83.8.04,1.81-.31,2.8-.82,1.37,2.29,3.26,4.22,5.53,5.63Z"/>
    <circle class="cls-1" cx="321.47" cy="25.16" r=".88"/>
    <path class="cls-1" d="m320.94,22.03l.31,2.75-2.23-1.64c-.6-.44-.97-1.13-.99-1.87l-.07-1.93c0-.09.08-.15.17-.15.02,0,.04,0,.06.02l1.64,1.02c.63.4,1.04,1.06,1.12,1.8Z"/>
    <path class="cls-1" d="m323.92,23.14l-2.23,1.64.3-2.75c.08-.74.5-1.41,1.13-1.8l1.64-1.02c.07-.04.16-.02.2.05.01.02.02.05.02.08l-.07,1.93c-.03.74-.39,1.43-.99,1.87Z"/>
    <path class="cls-1" d="m324.44,26.27l-2.53-1.11,2.53-1.11c.68-.3,1.47-.27,2.13.08l1.7.9c.07.04.1.13.06.2-.01.03-.03.05-.06.06l-1.7.9c-.66.35-1.44.38-2.13.08Z"/>
    <path class="cls-1" d="m321.99,28.29l-.3-2.75,2.23,1.64c.6.44.97,1.13.99,1.88l.07,1.93c0,.08-.06.15-.14.15-.03,0-.06,0-.09-.02l-1.64-1.02c-.63-.4-1.05-1.06-1.13-1.8Z"/>
    <path class="cls-1" d="m319.01,27.18l2.23-1.64-.31,2.75c-.08.74-.5,1.4-1.13,1.8l-1.64,1.02c-.07.04-.16.02-.2-.05-.02-.02-.02-.05-.02-.08l.07-1.93c.03-.75.4-1.44,1-1.88Z"/>
    <path class="cls-1" d="m318.49,24.04l2.53,1.11-2.53,1.11c-.68.3-1.47.27-2.13-.08l-1.7-.9c-.07-.04-.1-.13-.06-.2.01-.03.03-.05.06-.06l1.7-.9c.66-.35,1.44-.38,2.13-.08Z"/>
  </g>
  <g>
    <path class="cls-1" d="m264.17,12.21l-2.47,2.87-2.47-2.87c-1.12-1.3-1.25-3.18-.34-4.62l2.81-4.45,2.81,4.45c.91,1.45.78,3.32-.34,4.62Z"/>
    <path class="cls-1" d="m279.77,27.54l-.13.09.1.08c-1.13,6.38-6.21,9.18-9.11,10.56-3.27,1.56-8.92,4.79-8.92,8.58,0-3.79-5.65-7.01-8.92-8.58-2.9-1.39-7.98-4.18-9.11-10.56l.1-.08-.13-.09c-.13-.82-.2-1.65-.2-2.49,0-8.29,6.59-11.95,10.71-11.95,3.11,0,5.37,1.86,6.28,2.78.28.28.32.71.11,1.03l-.66,1.02c-.12.18-.36.23-.54.12-.04-.02-.07-.05-.09-.09-.86-1.08-3.45-3.6-7.95-1.92-3.37,1.26-5.48,4.39-5.48,8.13s2.31,9.18,8.36,11.42c6.05,2.24,7.53,5.87,7.53,5.87,0,0,1.48-3.63,7.53-5.87,6.05-2.24,8.36-7.68,8.36-11.42s-2.11-6.87-5.47-8.12c-4.51-1.69-7.09.83-7.95,1.92-.13.17-.38.2-.55.07-.03-.03-.06-.06-.09-.09l-.66-1.02c-.21-.33-.17-.76.11-1.03.92-.92,3.17-2.78,6.28-2.78,4.12,0,10.71,3.65,10.71,11.95,0,.83-.06,1.66-.2,2.48Z"/>
    <path class="cls-1" d="m243.76,27.64l-.1.08c-.01-.06-.02-.12-.03-.18l.13.09Z"/>
    <path class="cls-1" d="m259.05,33.03c-5.15-4.53-6.34-7.54-5.18-10.25,1.17-2.71,4.41-1.62,4.41-1.62-2.78-2.88-5.12-2.34-6.42-1.61-.78.45-1.41,1.13-1.79,1.95-1.06,2.24-.09,4.4,1.54,6.24-1.03.08-2.3.53-3.03,2.02,0,0,.76-.78,1.79-.91s2.07-.19,2.87.46h0c2.65,2.24,5.81,3.72,5.81,3.72Z"/>
    <path class="cls-1" d="m246.06,14.54c-.17-1.32-1.27-2.32-2.59-2.37l-3.31-.13.78,2.73c.4,1.42,1.79,2.33,3.25,2.13l2.14-.29-.26-2.06Z"/>
    <path class="cls-1" d="m243.76,27.64l-.1.08-1.28,1.11c-.66.58-1.63.64-2.36.15l-1.63-1.07,1.7-1.25c.69-.51,1.63-.51,2.31,0l1.23.88.12.09Z"/>
    <path class="cls-1" d="m279.77,27.54c0,.06-.02.12-.03.18l-.1-.08.13-.09Z"/>
    <path class="cls-1" d="m264.35,33.03c5.15-4.53,6.34-7.54,5.17-10.25-1.17-2.71-4.42-1.62-4.42-1.62,2.78-2.88,5.12-2.34,6.42-1.61.78.45,1.41,1.13,1.79,1.95,1.06,2.24.09,4.4-1.54,6.24,1.03.08,2.3.53,3.03,2.02,0,0-.76-.78-1.79-.91s-2.07-.19-2.87.46h0c-2.65,2.25-5.81,3.72-5.81,3.72Z"/>
    <path class="cls-1" d="m277.34,14.54c.17-1.32,1.27-2.32,2.59-2.37l3.31-.13-.78,2.73c-.4,1.42-1.79,2.33-3.25,2.13l-2.14-.29.26-2.06Z"/>
    <path class="cls-1" d="m285,27.92l-1.63,1.07c-.73.49-1.7.42-2.36-.15l-1.28-1.11-.1-.08.13-.09,1.22-.89c.69-.51,1.63-.51,2.32,0l1.71,1.26Z"/>
  </g>
  <path class="cls-1" d="m218.79,34.84h0c-5.04,9.36-16.34,13.41-26.18,9.38.13,0,7.11.48,9.43-1.28,0,0-11.34-1.33-11.17-13.61,0,0,1.39,2.39,3.89,2.39s4.22-3,4.22-5.95-3.5-6.72-7.45-6.72-10.49,3.35-8.99,16.4c-5.24-9.02-2.98-20.54,5.29-26.91-.15.23-3.98,5.94-3.62,8.79,0,0,6.85-9.13,17.38-2.82,0,0-2.77,0-4.02,2.16s.47,5.16,3.02,6.64,7.57.35,9.56-3.06c1.98-3.41,2.38-10.75-9.66-16.02h0c10.18,0,18.86,7.38,20.5,17.43-.1-.19-3.33-6.31-6.02-7.36.07.15,4.71,10.41-5.76,16.64,0,0,1.3-2.43,0-4.57-1.3-2.13-4.77-2.03-7.28-.49-2.51,1.54-3.9,6.5-1.84,9.86,2.06,3.36,8.35,7.19,18.69-.91Z"/>
  <g>
    <path class="cls-1" d="m391.37,29.88l.31-.24c1.55-1.22,2.75-2.83,3.48-4.65h0s-8.84-13.24-17.65-19.04c0,0-9.86,7.81-12.21,11.97,0,0,1.62,5.84,2.96,7.45,0,0,7.13-6.82,9.25-7.51,0,0,2.75,1.99,3.97,5.45l-4.3,4.07,1.28,1.73,6.47-5.52s-3.26-6.37-7.43-9.88l-8.23,6.98s1.87-6.58,8.23-12.89c0,0,11.23,12.78,13.86,22.1Z"/>
    <path class="cls-1" d="m363.67,20.12l-.31.24c-1.55,1.22-2.75,2.83-3.48,4.66h0s8.84,13.23,17.64,19.04c0,0,9.86-7.81,12.21-11.97,0,0-1.62-5.84-2.96-7.45,0,0-7.13,6.75-9.25,7.45,0,0-2.75-1.92-3.97-5.39l4.3-4.07-1.28-1.73-6.47,5.52s3.26,6.36,7.43,9.88l8.25-6.96s-1.87,6.59-8.25,12.89c0,0-11.23-12.78-13.85-22.1Z"/>
  </g>
  <g>
    <path class="cls-1" d="m78.67,44.33c-2.44.06-4.42-.35-6-.95,1.94.63,3.97.95,6,.95Z"/>
    <path class="cls-1" d="m74.1,35.68h0c0,.4.1.79.28,1.15.61,1.26,1.65,2.27,2.93,2.84h0c.76.34,1.58.51,2.41.51,3.07,0,4.45-1.96,4.63-2.75-.22,1.18-1.99,3.77-5.65,3.77-3.87,0-7-3.17-6.94-7.05.05-3.47,2.71-6.41,6.16-6.79s6.55,1.78,7.47,5.02c.01.04.03.08.04.13s.02.07.03.1c.02.1.04.21.05.31h0v.02c.11,1.27-.68,2.43-1.9,2.8-.42.12-.86.14-1.29.06-1.05-.21-1.88-1.03-2.1-2.08-.02-.08-.03-.16-.04-.24-.23-1.09-1.2-1.87-2.31-1.87-.12,0-.24,0-.36.03-.08.01-.16.03-.23.05-1.85.44-3.15,2.09-3.15,3.99Z"/>
    <path class="cls-1" d="m61.77,15.6c-.07.12-.14.25-.2.37.06-.13.12-.25.2-.37Z"/>
    <path class="cls-1" d="m64.6,25.3c0,.96-.53,1.83-1.38,2.27h0c-1.26.65-2.8.16-3.46-1.1-.65-1.26-.16-2.8,1.1-3.46,1.26-.65,2.8-.16,3.46,1.1.19.37.29.77.29,1.18Z"/>
    <path class="cls-1" d="m67.43,33.74c0,.74-.44,1.42-1.12,1.72-.22.1-.46.15-.7.16h-.02c-.87,0-1.66-.58-1.86-1.42-.26-1.1.46-2.13,1.52-2.3.1-.02.21-.03.31-.03,1.03,0,1.87.84,1.87,1.87Z"/>
    <path class="cls-1" d="m98,24.79c.11,10.69-8.65,19.54-19.34,19.54-2.04,0-4.07-.32-6-.95-3.69-1.41-5.19-3.88-5.23-3.96,1.53,1.11,3.24,1.96,5.05,2.52.18.06.36.11.54.16h0c1.83.52,3.73.77,5.64.74.21,0,.42,0,.63-.01,3.72-.15,7.11-2.31,8.66-5.7.73-1.58,1.06-3.32.96-5.05-.3-5.7-5.09-10.19-10.79-10.16-.94,0-1.87.13-2.77.38h-.04c-.21.07-.43.09-.65.09-1.46,0-2.65-1.17-2.65-2.63,0-1.04.6-1.99,1.55-2.51h.02l.03.16h.01l.05-.1.13-.05h0c6.98-2.66,14.8.84,17.46,7.82,2,5.24.55,11.17-3.63,14.91,4.11-2.92,6.53-7.67,6.48-12.71-.06-8.39-6.93-15.26-15.32-15.33-5.02-.05-9.75,2.36-12.68,6.44-.05.07-.1.14-.16.22-.88,1.11-2.5,1.3-3.62.42-.91-.72-1.22-1.97-.76-3.04.06-.13.13-.25.2-.37,5.2-9.33,16.97-12.68,26.3-7.48,6.06,3.38,9.84,9.74,9.92,16.67Z"/>
    <path class="cls-1" d="m78.67,44.33c-2.44.06-4.42-.35-6-.95,1.94.63,3.97.95,6,.95Z"/>
  </g>
  <g>
    <path class="cls-1" d="m21.14,4.19s0,3.33-1.95,5.82c-1.95,2.49-3.58,3.98-3.58,6.57s1.89,4.63,6.97,6.72c5.08,2.09,7.72,5.18,7.72,8.06s-2.04,6.87-8.79,6.82c-6.67-1.05-3.41-6.72-1.62-7.31,0,0-5.17-.44-5.17,3.24s4.87,4.87,7.73,4.87,11.62-1.69,11.62-9.16c0-2.93-1.15-4.58-1.15-4.58,0,0,4.34,1.67,3.83,5.92-.65,5.37-8.41,5.74-14.94,11.95,0,0-1.74-2.03-7.7-4.98-3.42-1.69-7.53-3.13-7.42-8.16.1-4.18,4.53-5.88,4.53-5.88,0,0-7.46,7.66,3.23,12.74,0,0-6.92-10.75,6.72-13.09,0,0-7.42-1.89-7.71-8.26,0,0-1.24,3.58-3.04,5.47s-6.26,6.34-5.66,11.37,12.33,7.84,17.01,13.47c0,0,3.78-3.93,7.61-5.77,3.83-1.84,16.62-7.76,1.95-18.96,0,0-2.25-1.5-2.44-5.63-1.26,1.37-1.97,3.16-1.99,5.03,0,3.08,2.2,2.54,2.44,5.42,0,0-4.33-3.68-4.28-6.57.05-2.89,1.15-5.97,1.15-5.97,0,0-7.51,3.43-3.78,8.86,0,0-2.74-1.09-2.14-4.78s8.71-3.79.84-13.24Z"/>
    <path class="cls-1" d="m23.41,35.47s4.11-1.28,4.11-4.49-6.1-8.88-11.09-1.5c0,0,4.74-2.31,6.83.75s.15,5.24.15,5.24Z"/>
  </g>
</svg>