<?xml version="1.0" encoding="UTF-8"?>
<svg id="_图层_1" data-name="图层 1" xmlns="http://www.w3.org/2000/svg" viewBox="0 0 400 150">
  <defs>
    <style>
      .cls-1 {
        fill: #333;
        stroke-width: 0px;
      }
    </style>
  </defs>
  <path class="cls-1" d="m76.73,61.78c-2.44,0-4.68.59-6.71,1.76-2.03,1.17-3.65,2.75-4.86,4.73-1.21,1.98-1.84,4.21-1.89,6.67.02,2.49.62,4.75,1.8,6.76,1.17,2.02,2.77,3.63,4.79,4.84,2.02,1.21,4.26,1.81,6.73,1.81h25.24c.36,0,.68.13.94.38.27.25.4.56.4.93v10.63c0,.39-.13.71-.4.96-.27.25-.58.38-.94.38h-25.24c-4.91,0-9.37-1.2-13.38-3.59-4.01-2.39-7.22-5.6-9.61-9.61-2.39-4.01-3.59-8.47-3.59-13.38s1.2-9.34,3.59-13.37c2.39-4.03,5.6-7.24,9.61-9.63,4.01-2.39,8.47-3.59,13.38-3.59h25.24c.36,0,.68.13.94.4.27.27.4.58.4.94v10.63c0,.36-.13.68-.4.94s-.58.4-.94.4h-25.1Z"/>
  <path class="cls-1" d="m163.67,61.71h-36.56c-.56,0-1.03.19-1.41.58-.39.39-.58.86-.58,1.41v2.65c0,.56.19,1.03.58,1.41.39.39.86.58,1.41.58h23.29c.36,0,.67.13.92.4.25.27.38.58.38.94v10.63c0,.36-.13.68-.38.94-.25.27-.56.4-.92.4h-23.29c-.56,0-1.03.19-1.41.58s-.58.86-.58,1.41v2.65c0,.56.19,1.03.58,1.41.39.39.86.58,1.41.58h36.56c.36,0,.68.13.94.38.27.25.4.56.4.92v10.66c0,.36-.13.67-.4.92-.27.25-.58.38-.94.38h-50.53c-.36,0-.67-.13-.92-.38s-.38-.56-.38-.92v-37.25c0-.36.13-.67.38-.92s.56-.38.92-.38h5.33c1.84,0,3.4-.65,4.7-1.96,1.29-1.31,1.94-2.87,1.94-4.68v-5.33c0-.36.13-.68.4-.94s.58-.4.94-.4h37.21c.36,0,.68.13.94.4.27.27.4.58.4.94v10.63c0,.36-.13.68-.4.94s-.58.4-.94.4Z"/>
  <path class="cls-1" d="m225.37,61.71c.36,0,.67.13.93.38s.38.56.38.92v37.32c0,.36-.13.67-.38.92s-.56.38-.93.38h-10.66c-.36,0-.68-.13-.94-.38-.27-.25-.4-.56-.4-.92v-10.01c0-.53-.19-1-.58-1.4-.39-.4-.86-.6-1.41-.6h-16.65c-.36,0-.68-.13-.94-.38-.27-.25-.4-.56-.4-.92v-10.66c0-.36.13-.68.4-.94.27-.27.58-.4.94-.4h16.65c.56,0,1.03-.19,1.41-.58.39-.39.58-.86.58-1.41v-9.32c0-.56-.19-1.03-.58-1.41-.39-.39-.86-.58-1.41-.58h-11.32c-2.47,0-4.7.6-6.71,1.8-2.01,1.2-3.61,2.81-4.81,4.82-1.2,2.02-1.8,4.25-1.8,6.69v25.32c0,.36-.13.67-.4.92-.27.25-.58.38-.94.38h-10.66c-.36,0-.68-.13-.94-.38-.27-.25-.4-.56-.4-.92v-25.32c0-4.91,1.2-9.38,3.61-13.4,2.41-4.03,5.62-7.24,9.65-9.65,4.03-2.41,8.49-3.61,13.4-3.61h11.97c.39,0,.71.13.96.4.25.27.38.58.38.94v5.33c0,1.84.65,3.41,1.96,4.72,1.31,1.31,2.88,1.96,4.72,1.96h5.33Z"/>
  <path class="cls-1" d="m287.29,75.02c.12,0,.27.03.45.09.18.06.34.19.47.38.13.19.2.47.2.83-.29,4.74-1.64,9.01-4.04,12.82s-5.58,6.84-9.52,9.1c-3.94,2.26-8.28,3.39-13.02,3.39h-11.97c-.39,0-.71-.13-.96-.4-.25-.27-.38-.58-.38-.94v-5.33c0-1.84-.65-3.4-1.96-4.7-1.31-1.29-2.88-1.94-4.72-1.94h-5.3c-.39,0-.71-.13-.96-.4-.25-.27-.38-.58-.38-.94v-37.29c0-.36.13-.67.38-.92s.57-.38.96-.38h10.63c.36,0,.67.13.93.38s.38.55.38.89v23.54h.04v13.13c0,.53.19,1,.58,1.4.39.4.86.6,1.41.6h11.32c2.3,0,4.41-.53,6.33-1.6,1.92-1.06,3.49-2.5,4.72-4.3,1.22-1.8,1.95-3.84,2.19-6.11v-.14c.05-.34.14-.59.29-.74.15-.16.31-.27.49-.33.18-.06.33-.09.45-.09h10.99Z"/>
  <path class="cls-1" d="m348.66,61.71h-36.56c-.56,0-1.03.19-1.41.58-.39.39-.58.86-.58,1.41v2.65c0,.56.19,1.03.58,1.41.39.39.86.58,1.41.58h23.29c.36,0,.67.13.92.4.25.27.38.58.38.94v10.63c0,.36-.13.68-.38.94-.25.27-.56.4-.92.4h-23.29c-.56,0-1.03.19-1.41.58s-.58.86-.58,1.41v2.65c0,.56.19,1.03.58,1.41.39.39.86.58,1.41.58h36.56c.36,0,.68.13.94.38s.4.56.4.92v10.66c0,.36-.13.67-.4.92s-.58.38-.94.38h-50.53c-.36,0-.67-.13-.93-.38s-.38-.56-.38-.92v-37.25c0-.36.13-.67.38-.92s.56-.38.93-.38h5.33c1.84,0,3.4-.65,4.7-1.96,1.29-1.31,1.94-2.87,1.94-4.68v-5.33c0-.36.13-.68.4-.94.27-.27.58-.4.94-.4h37.21c.36,0,.68.13.94.4.27.27.4.58.4.94v10.63c0,.36-.13.68-.4.94-.27.27-.58.4-.94.4Z"/>
</svg>