<?xml version="1.0" encoding="UTF-8"?>
<svg id="_图层_1" data-name="图层 1" xmlns="http://www.w3.org/2000/svg" viewBox="0 0 400 80">
  <defs>
    <style>
      .cls-1 {
        fill: #fff;
        stroke-width: 0px;
      }
    </style>
  </defs>
  <path class="cls-1" d="m69.29,26.72h5.31c.36,0,.67.13.92.4s.38.58.38.94v37c0,.36-.13.67-.38.94s-.56.4-.92.4h-10.58c-.39,0-.7-.13-.96-.4s-.38-.58-.38-.94V28.7c0-.55-.19-1.02-.58-1.41s-.85-.58-1.41-.58h-5.96c-.55,0-1.02.19-1.41.58s-.58.85-.58,1.41v23.14c0,.36-.13.67-.38.94s-.56.4-.92.4h-10.58c-.36,0-.67-.13-.94-.4s-.4-.58-.4-.94v-23.14c0-.55-.19-1.02-.58-1.41s-.85-.58-1.41-.58h-5.96c-.53,0-.99.19-1.39.58s-.6.85-.6,1.41v36.35c0,.36-.13.67-.38.94s-.56.4-.92.4h-10.58c-.36,0-.67-.13-.94-.4s-.4-.58-.4-.94V14.84c0-.36.13-.67.4-.94s.58-.4.94-.4h43.61c.36,0,.67.13.94.4s.4.58.4.94v5.27c0,1.83.64,3.39,1.93,4.67s2.85,1.93,4.67,1.93Z"/>
  <path class="cls-1" d="m111.38,13.5c4.86,0,9.3,1.19,13.3,3.57s7.2,5.58,9.58,9.58,3.57,8.44,3.57,13.3-1.19,9.33-3.57,13.34-5.58,7.2-9.58,9.58c-4.01,2.38-8.44,3.57-13.3,3.57s-9.33-1.19-13.34-3.57c-4.01-2.38-7.2-5.58-9.58-9.58s-3.57-8.45-3.57-13.34,1.19-9.3,3.57-13.3,5.58-7.2,9.58-9.58,8.45-3.57,13.34-3.57Zm0,39.71c2.43,0,4.65-.6,6.66-1.79s3.61-2.79,4.8-4.8,1.79-4.23,1.79-6.66-.6-4.65-1.79-6.66-2.79-3.61-4.8-4.8-4.23-1.79-6.66-1.79-4.68.6-6.68,1.79-3.59,2.79-4.78,4.8-1.79,4.23-1.79,6.66.6,4.65,1.79,6.66,2.79,3.61,4.78,4.8,4.22,1.79,6.68,1.79Z"/>
  <path class="cls-1" d="m198.05,13.58c.36,0,.67.13.94.38s.4.56.4.92v37.11c0,.36-.13.67-.4.94s-.58.4-.94.4h-5.31c-1.83,0-3.39.64-4.67,1.93s-1.93,2.85-1.93,4.67v5.31c0,.36-.13.67-.4.94s-.58.4-.94.4h-11.91c-4.74,0-9.07-1.13-13-3.38s-7.08-5.27-9.48-9.06-3.72-8.04-3.99-12.76c0-.36.07-.64.2-.83s.28-.32.45-.38.31-.09.43-.09h10.97c.12,0,.26.03.43.09s.32.17.47.32.24.4.29.74v.14c.26,2.26,1,4.29,2.2,6.08s2.76,3.22,4.67,4.28,4.03,1.59,6.34,1.59h11.26c.53,0,.99-.2,1.39-.6s.6-.86.6-1.39v-22.53c0-.55-.2-1.02-.6-1.41s-.86-.58-1.39-.58h-23.21c-.36,0-.67-.13-.92-.4s-.38-.58-.38-.94v-10.61c0-.36.13-.67.38-.92s.56-.38.92-.38h37.11Z"/>
  <path class="cls-1" d="m259.35,26.75c.36,0,.67.13.92.38s.38.56.38.92v37.15c0,.36-.13.67-.38.92s-.56.38-.92.38h-10.61c-.36,0-.67-.13-.94-.38s-.4-.56-.4-.92v-9.96c0-.53-.19-.99-.58-1.39s-.85-.6-1.41-.6h-16.57c-.36,0-.67-.13-.94-.38s-.4-.56-.4-.92v-10.61c0-.36.13-.67.4-.94s.58-.4.94-.4h16.57c.55,0,1.02-.19,1.41-.58s.58-.85.58-1.41v-9.28c0-.55-.19-1.02-.58-1.41s-.85-.58-1.41-.58h-11.26c-2.45,0-4.68.6-6.68,1.79s-3.59,2.79-4.78,4.8-1.79,4.23-1.79,6.66v25.2c0,.36-.13.67-.4.92s-.58.38-.94.38h-10.61c-.36,0-.67-.13-.94-.38s-.4-.56-.4-.92v-25.2c0-4.89,1.2-9.33,3.59-13.34,2.39-4.01,5.6-7.21,9.6-9.6s8.45-3.59,13.34-3.59h11.91c.39,0,.7.13.96.4s.38.58.38.94v5.31c0,1.83.65,3.39,1.95,4.69s2.86,1.95,4.69,1.95h5.31Z"/>
  <path class="cls-1" d="m320.82,26.75c.36,0,.67.13.94.38s.4.56.4.92v37.15c0,.36-.13.67-.4.92s-.58.38-.94.38h-10.61c-.36,0-.67-.13-.92-.38s-.38-.56-.38-.92V28.74c0-.55-.2-1.02-.6-1.41s-.86-.58-1.39-.58h-22.56c-.53,0-.99.19-1.39.58s-.6.85-.6,1.41v36.46c0,.36-.13.67-.38.92s-.56.38-.92.38h-10.61c-.36,0-.67-.13-.94-.38s-.4-.56-.4-.92V14.8c0-.36.13-.67.4-.94s.58-.4.94-.4h37.11c.36,0,.67.13.94.4s.4.58.4.94v5.31c0,1.83.64,3.39,1.93,4.69s2.85,1.95,4.67,1.95h5.31Z"/>
  <path class="cls-1" d="m357.03,26.64c-2.45,0-4.69.6-6.7,1.79s-3.61,2.79-4.8,4.8-1.79,4.24-1.79,6.7.6,4.65,1.79,6.66,2.77,3.6,4.75,4.78c1.32.63,2.49.82,3.5.58s1.8-.69,2.38-1.34.87-1.25.87-1.8v-7.54c0-.36.13-.67.4-.94s.58-.4.94-.4h23.9c.36,0,.67.13.94.4s.4.58.4.94v23.9c0,.36-.13.67-.4.94s-.58.4-.94.4h-10.61c-.36,0-.67-.13-.94-.4s-.4-.58-.4-.94v-9.96c0-.55-.19-1.02-.58-1.41s-.85-.58-1.41-.58h-9.31c-.55,0-1.02.19-1.41.58s-.58.85-.58,1.41v11.3c-4.89,0-9.34-1.2-13.36-3.59s-7.23-5.6-9.62-9.62c-2.39-4.02-3.59-8.47-3.59-13.36s1.2-9.34,3.59-13.36,5.6-7.23,9.62-9.62,8.47-3.59,13.36-3.59h25.23c.36,0,.67.13.94.4s.4.58.4.94v10.61c0,.36-.13.67-.4.94s-.58.4-.94.4h-25.23Z"/>
</svg>