<?xml version="1.0" encoding="UTF-8"?>
<svg id="_图层_1" data-name="图层 1" xmlns="http://www.w3.org/2000/svg" viewBox="0 0 800 200">
  <defs>
    <style>
      .cls-1 {
        fill: #333;
        stroke-width: 0px;
      }
    </style>
  </defs>
  <path class="cls-1" d="m127.55,86.98c-.48.36-2.34.89-2.42,1.1-3.89,10.05-10.6,22.81-21.38,31.14-.09.07-.45.09-.64,0s-.36-.29-.19-.66c7.04-10.44,11.52-26.06,13.24-36.64,5.97,1.06,14.59,3.14,11.4,5.07Zm15.68-18.18c-.38.5-.79.98-1.11,1.35-.36.41-.55.93-.55,1.47v50.26c0,5.77-1.38,9.25-10.9,10.43-.76.09-1.47-.44-1.58-1.21-.32-2.23-.88-3.82-2.14-4.9-1.39-1.39-3.26-2.38-7.41-3.1-.14-.02-.44-.29-.44-.59s.19-.48.51-.46c2.04.12,9.55.55,11.23.55,1.37,0,1.8-.43,1.8-1.44v-55.23l9.77.97c.93.09,1.39,1.16.83,1.9Zm19.54,47.61c-1.29-.61-2.15-1.87-2.37-3.28-1.55-9.75-6.81-20.63-12.14-28.92-.09-.15-.04-.48.24-.68s.66-.05.79.02c26.81,15.57,22.41,37.09,13.49,32.85Z"/>
  <path class="cls-1" d="m170.17,131.6c8.69-3.34,18.27-9.21,22.88-13.68l7.7,5.43c.82.58.41,1.87-.6,1.86-.14,0-.29,0-.44-.02-1.22-.09-2.43.09-3.55.59-6.57,2.93-16.21,5.62-25.57,6.84-.17.02-.63-.12-.67-.46s.12-.51.25-.56Zm62.08-50.83c1.35,1.04,2.94,2.27,4.35,3.42.88.72.4,2.16-.73,2.19-.04,0-.08,0-.11,0h-28.01v6.26h11.02l2.85-3.22c.59-.66,1.58-.76,2.28-.21l7.04,5.45c-.43.58-1.37,1.15-2.88,1.44v17.86c0,2.1-1.43,3.93-3.47,4.44-2.97.79-5.1-.8-5.1-2.42h0s-30.96,0-30.96,0v1.73c0,.6-1.83,1.66-4.13,2.25-.15.04-.35.07-.59.11-2,.28-3.77-1.29-3.77-3.31h0v-26.6c0-.5.5-.84.96-.65l8.04,3.15h10.37v-6.26h-28.44l-.58-2.02h19.15v-8.57h-14.11l-.58-2.02h14.69v-8.86l8.44.72c1.29.11,1.37,1.97.1,2.19h-.08c-.1.03-.17.11-.17.21v5.74h11.52v-8.86l8.56.73c1.29.11,1.37,1.97.09,2.19h-.06c-.1.03-.17.11-.17.21v5.74h3.6l2.13-2.62c1.43-1.76,4-2.05,5.79-.66,1.23.96,2.64,2.08,3.91,3.13.88.73.36,2.16-.78,2.17h-.03s-14.62,0-14.62,0v8.57h6.41l2.3-2.88c1.41-1.77,3.98-2.09,5.79-.71Zm-43.73,13.96v8.14h10.87v-8.14h-10.87Zm0,19.15h10.87v-9h-10.87v9Zm9.29-29.52h11.52v-8.57h-11.52v8.57Zm10.89,35.39c38.33,1.75,24.63,17.14,17.33,11.2-3.16-3.23-8.84-7.2-17.65-10.07-.23-.08-.58-.27-.58-.65s.65-.49.9-.48Zm-.96-25.02v8.14h11.74v-8.14h-11.74Zm11.74,19.15v-9h-11.74v9h11.74Z"/>
  <path class="cls-1" d="m282.48,122.13c0,.77-.41,1.5-1.1,1.85-4.33,2.23-9.18,3.51-14.95,3.51-15.99,0-27.87-10.15-27.87-28.08s12.74-28.01,28.15-28.01c5.15,0,9.47,1.06,13.82,3.29.83.43,1.36,1.27,1.35,2.21-.02,1.7-.06,4.42-.06,5.54,0,1.69-.17,3.83-1.42,4.45s-3.12-.48-3.44-1.71l-1.26-4.9c-.89-3.48-4.03-5.91-7.62-5.92h-.07c-10.66,0-18.72,8.28-18.72,25.13s7.92,25.06,18.72,25.06c2.13,0,4.1-.33,6.14-1.03.58-.2,1-.69,1.16-1.28l2.46-9.46c.27-1.04,1.21-1.77,2.29-1.77h0c1.3,0,2.36,1.05,2.36,2.35l.05,8.78Z"/>
  <path class="cls-1" d="m549.3,82.06c-1.37,6.62-3.67,12.67-7.2,17.93,14,10.07,11.83,19.95,5.6,18.33-.93-.24-1.7-.89-2.19-1.71-2.02-3.43-4.92-7.06-8.24-10.64-5.83,5.98-13.61,10.66-23.91,13.83,5.18,2.45,12.31,3.24,23.26,3.24,7.69,0,14.03-.07,21.84-.47.23-.01.59-.01.67.3s-.29.54-.44.59c-2.64.84-4.32,2.95-5.04,5.58-.27.98-1.21,1.63-2.23,1.63h-17.6c-14.91,0-21.24-3.53-27.29-12.31-.94-1.51-1.8-1.29-2.52,0-1.36,2.32-3.24,4.72-5.46,8.78-.45.77-1.54,4.05-1.81,4.39-.11.14-.36.35-.62.08s-5.64-8.42-5.64-8.42c2.66-1.58,6.34-4.03,9.29-5.98v-24.63h-9.14l-.43-2.09h8.42l4.03-5.26,7.88,6.3c.43.35.37,1.02-.11,1.29-.64.36-1.56.65-2.87.83v22.03l.07.07c1.37,1.37,2.88,2.52,4.54,3.46,9.43-4.68,16.13-10.59,20.67-17.5-4.73-4.46-9.98-8.58-14.82-11.64-.24-.15-.55-.56-.27-.87s.9-.12,1.19-.03c6.82,2.16,12.44,4.52,17,7,2.09-4.39,3.38-9.15,4.18-14.11h-26.43l-.5-2.09h31.83l3.52-4.32c.69-.85,1.92-.99,2.79-.33,1.69,1.3,4.43,3.42,6.56,5.21.32.27.35.77.04,1.04-.38.33-.96.49-1.67.49h-6.91Zm-54.5-15.6c18.21,5.08,16.3,17.01,10.45,17.03-1.81,0-3.35-1.31-3.91-3.04-1.5-4.65-4.57-9.67-7.31-13.34-.08-.11-.1-.3.07-.53s.58-.15.7-.12Zm32.1-.67c18.06,2.29,13.04,15.16,6.04,12.59-1.02-.37-1.71-1.3-1.94-2.36-.75-3.49-2.8-7.07-4.97-9.49-.12-.13-.24-.36-.05-.6s.71-.16.92-.13Z"/>
  <path class="cls-1" d="m625.7,91.13c-.58.65-1.3.79-2.81.86-2.59,1.94-7.13,4.54-10.3,6.05l-.65-.43c.72-1.94,1.66-4.9,2.3-7.27h-42.84c-.07,4.61-2.09,7.7-4.68,9.07-2.38,1.37-6.05.58-6.98-2.3-.72-2.66.94-4.75,3.31-5.76,2.55-1.03,5.83-3.72,6.42-6.92.03-.14.31-.46.61-.38s.48.34.52.5c.36,1.34.6,2.62.73,3.78h42.63l2.88-2.88c.8-.8,2.1-.82,2.92-.03l5.94,5.71Zm-7.66,31.87c1.87,1.56,4.9,4.12,7.09,6.07-.22.79-1.01,1.15-2.09,1.15h-62.36l-.58-2.02h23.83c-.52-.14-1.06-.37-1.62-.72s-.89-.9-.94-1.53c-.27-3.18-1.6-6.39-3.05-8.7-.74.31-.84.36-1.77.58-1.12.27-3.13.13-3.6-.31-.59-.55-.83-1.24-.83-1.95v-12.48c0-1.57,1.58-2.66,3.05-2.09l5.74,2.21h22.25l2.54-2.74c.72-.78,1.92-.89,2.77-.25l5.76,4.28c.48.36.45,1.1-.07,1.4s-1.13.54-1.86.7v7.96c0,.63-.39,1.18-.97,1.41-1.42.56-4.1,1.21-5.95,1.21h0c-.83,0-1.51-.68-1.51-1.51v-.65h-23.47v.86c0,.14-.14.36-.43.58,12.46,2.59,10.87,10.51,6.34,11.74h8.42c1.27-3.24,2.43-7.5,3.08-10.93.13-.71.84-1.16,1.54-.98l9.37,2.36c.44.11.65.67.33,1-.26.26-.62.45-1.09.55-.86.19-1.66.61-2.3,1.22-2.41,2.26-5.66,4.76-8.92,6.78h14.69l3.58-4.85c.71-.97,2.09-1.13,3.01-.36Zm-55.99-50.52h25.42s-.04-4.35-.07-5.47-.22-2.63-.22-2.63c0,0,11.25.79,11.74,2.55.5,1.79-1.08,1.68-2.66,2.23v3.31s14.04,0,14.04,0l3.38-4.42c.71-.93,2.05-1.09,2.97-.35,1.81,1.47,4.72,3.86,6.76,5.71-.22.79-.94,1.15-2.02,1.15h-25.13v6.55h9.72l3.32-4.36c.71-.93,2.04-1.1,2.95-.37,1.81,1.44,4.72,3.76,6.76,5.53-.22.79-1.01,1.15-2.09,1.15h-49.25l-.58-1.94h20.38v-6.55h-24.84l-.58-2.09Zm43.57,19.39c1.55,1.16,3.95,2.98,5.78,4.52.23.19.3.53.13.77-.32.45-.97.67-1.74.67h-35.07l-.58-2.09h25.71l2.92-3.52c.71-.86,1.96-1.01,2.85-.34Zm-25.21,13.44v7.63h23.47v-7.63h-23.47Z"/>
  <path class="cls-1" d="m685.93,66.8c1.76,1.35,4.63,3.56,6.9,5.38.45.37.44,1.11-.07,1.39-.35.19-.8.28-1.31.28h-26.93c-2.95,3.67-6.7,7.7-9.86,10.66h24.19l3.02-3.42c.73-.83,1.98-.94,2.85-.26l5.01,3.95c.75.59.61,1.79-.27,2.15-.41.17-.91.3-1.53.38v40.07c-.6,5.14-8.59,6.22-8.64,2.04v-3.15h-39.75v2.07c-.18,5.07-8.16,5.43-8.28,1.6v-46.48c0-1.16,1.16-1.96,2.25-1.55l6.9,2.61h11.59c.36-3.02.79-7.2,1.08-10.66h-26.35l-.58-2.02h53.14l3.77-4.68c.71-.88,1.99-1.04,2.88-.35Zm-46.4,57.46h7.63v-37.73h-7.63v37.73Zm24.12-37.73h-8.71v11.02h8.71v-11.02Zm-8.71,24.34h8.71v-11.3h-8.71v11.3Zm0,13.39h8.71v-11.31h-8.71v11.31Zm16.56-37.73v37.73h7.78v-37.73h-7.78Z"/>
  <path class="cls-1" d="m297.82,106.69c.29,11.02,5.76,15.84,12.75,15.84,4.81,0,7.83-1.86,10.25-4.84.32-.39.87-.48,1.28-.19l.03.02c.39.27.52.8.3,1.21-2.97,5.45-8.27,8.55-15.1,8.55-11.3,0-19.51-7.34-19.51-20.45s9.5-20.38,19.59-20.38,15.84,6.7,15.84,15.77c0,1.87-.14,3.24-.5,4.46h-24.91Zm12.31-2.66c3.31,0,4.1-1.66,4.1-5.33,0-5.83-3.1-9.58-7.49-9.58s-8.5,4.39-8.93,14.91h12.31Z"/>
  <path class="cls-1" d="m366.56,121.92c.22.19.29.51.14.77-1.85,3.27-4.31,4.52-7.97,4.52-4.39,0-6.91-2.45-7.85-6.34-4.2,4.43-7.11,6.67-13.1,6.38-5.22-.25-9.49-4.54-9.44-9.76.05-5.89,3.4-9.39,14.4-12.82,2.16-.72,5.04-1.51,7.85-2.16v-3.67c0-7.63-1.94-9.72-7.34-9.72-1.11,0-2.23.12-3.39.36-.21.04-.38.21-.42.42l-.94,4.84c-.29,3.96-2.23,5.54-4.68,5.54s-3.89-1.15-4.32-3.31c.94-6.48,6.91-10.51,16.92-10.51,9.43,0,13.39,4.1,13.39,14.19v18.58c0,3.24,1.01,4.32,2.59,4.32.97,0,1.77-.53,2.86-1.89.21-.27.61-.3.87-.08l.42.35Zm-15.96-17.32c-2.16.65-4.18,1.22-5.4,1.73-5.69,2.23-7.85,5.54-7.85,10.01s2.3,6.26,5.76,6.26c2.38,0,4.18-1.08,7.49-3.82v-14.18Z"/>
  <path class="cls-1" d="m389.55,125.1v1.03h-20.88v-1.04c0-.68.51-1.25,1.18-1.33l4.36-.51c.14-4.54.22-9.5.22-14.04v-34.59c0-.67-.51-1.23-1.18-1.29l-2.19-.2c-.83-.07-1.47-.77-1.47-1.6h0c0-.75.52-1.4,1.25-1.57l11.91-2.74c.2-.05.41,0,.59.1l.37.24c.23.14.36.4.35.66l-.28,11.02v29.95c0,4.54.07,9.51.22,14.11l4.35.45c.68.07,1.2.64,1.2,1.33Z"/>
  <path class="cls-1" d="m403.88,106.69c.29,11.02,5.76,15.84,12.75,15.84,4.81,0,7.83-1.86,10.25-4.84.32-.39.87-.48,1.28-.19l.03.02c.39.27.52.8.3,1.21-2.97,5.45-8.27,8.55-15.1,8.55-11.3,0-19.51-7.34-19.51-20.45s9.5-20.38,19.59-20.38,15.84,6.7,15.84,15.77c0,1.87-.14,3.24-.5,4.46h-24.91Zm12.31-2.66c3.31,0,4.1-1.66,4.1-5.33,0-5.83-3.1-9.58-7.49-9.58s-8.5,4.39-8.93,14.91h12.31Z"/>
  <g>
    <path class="cls-1" d="m481,100.5c0,9.76-6.2,16.34-16.69,18.2-1.07.19-1.9-.15-2.49-1.13-.63-1.07-.29-1.9.98-2.09.73-.1,1.46-.2,2.05-.34,6.24-1.42,12.63-6.1,12.63-14.79,0-7.41-4.92-13.75-13.56-14.39-.18,1.32-.38,2.67-.62,4.04-.06.33-.37.54-.7.5-.47-.07-.95-.1-1.43-.1-.51,0-1,.04-1.49.11.26-1.5.47-3.01.63-4.5-9.56,1.07-15.61,9.27-15.61,16.15,0,6.34,2.98,9.12,5.27,9.12,1.1,0,2.32-.76,3.57-2.51.21-.3.63-.35.91-.11.54.47,1.13.87,1.76,1.21.32.17.44.58.23.88-2.01,2.99-4.23,4.47-6.62,4.47-4.14,0-8.48-4.78-8.48-12.83,0-10.44,9.36-19.61,21.12-19.61s18.54,8,18.54,17.71Z"/>
    <path class="cls-1" d="m458.16,93.33c.45-.18.92.23.82.7-.41,1.86-.88,3.67-1.41,5.39-.66,2.24-1.34,4.12-2.02,5.67-.19.44-.8.5-1.06.1-.84-1.27-1.33-2.79-1.33-4.43,0-3.36,2.07-6.25,5.01-7.43Z"/>
    <path class="cls-1" d="m463.38,93.07c-.33-.1-.67.13-.74.47-.46,2.27-1,4.53-1.65,6.67-.85,2.84-1.76,5.28-2.73,7.32-.16.34.01.72.37.84.93.31,1.95.46,3,.4,3.95-.23,7.23-3.47,7.51-7.42s-2.25-7.27-5.77-8.28Z"/>
  </g>
  <g>
    <path class="cls-1" d="m710,91.5h0c2.21,0,4,1.79,4,4v38.52c0,3.03-2.45,5.48-5.48,5.48h-19.52c0-1.19.96-2.15,2.15-2.15h18.35c.28,0,.5-.22.5-.5v-45.35Z"/>
    <path class="cls-1" d="m90,106.5h0c-2.21,0-4-1.79-4-4v-38.52c0-3.03,2.45-5.48,5.48-5.48h19.52c0,1.19-.96,2.15-2.15,2.15h-18.35c-.28,0-.5.22-.5.5v45.35Z"/>
  </g>
</svg>